{"title":"X-Art - 2009-11-20 - Translucence - Kat.mp4","uid":9041981,"size":45505541,"categoryP":"porn","categoryS":"movie_clips","magnet":"?xt=urn:btih:018ea4a2db4c08bbf5dd8140fdc30ae4bbf7f853&amp;dn=X-Art+-+2009-11-20+-+Translucence+-+Kat.mp4&amp;tr=udp%3A%2F%2Ftracker.openbittorrent.com%3A80&amp;tr=udp%3A%2F%2Fopen.demonii.com%3A1337&amp;tr=udp%3A%2F%2Ftracker.coppersurfer.tk%3A6969&amp;tr=udp%3A%2F%2Fexodus.desync.com%3A6969","seeders":0,"leechers":1,"uploader":"Uncle_Sukita","files":1,"time":1381656406,"description":"General\n\nFormat : MPEG-4\nFormat profile : Base Media / Version 2\nCodec ID : mp42\nFile size : 43.4 MiB\nDuration : 5mn 32s\nOverall bit rate mode : Variable\nOverall bit rate : 1 096 Kbps\nWriting application : HandBrake 0.9.9 2013052900\n\nVideo\nID : 1\nFormat : AVC\nFormat/Info : Advanced Video Codec\nFormat profile : &lt;a class=&quot;__cf_email__&quot; href=&quot;/cdn-cgi/l/email-protection&quot; data-cfemail=&quot;0f476668674f433b213e&quot;&gt;[email&amp;#160;protected]&lt;/a&gt;&lt;script cf-hash='f9e31' type=&quot;text/javascript&quot;&gt;\n/* &lt;![CDATA[ */!function(){try{var t=&quot;currentScript&quot;in document?document.currentScript:function(){for(var t=document.getElementsByTagName(&quot;script&quot;),e=t.length;e--;)if(t[e].getAttribute(&quot;cf-hash&quot;))return t[e]}();if(t&amp;&amp;t.previousSibling){var e,r,n,i,c=t.previousSibling,a=c.getAttribute(&quot;data-cfemail&quot;);if(a){for(e=&quot;&quot;,r=parseInt(a.substr(0,2),16),n=2;a.length-n;n+=2)i=parseInt(a.substr(n,2),16)^r,e+=String.fromCharCode(i);e=document.createTextNode(e),c.parentNode.replaceChild(e,c)}}}catch(u){}}();/* ]]&gt; */&lt;/script&gt;\nFormat settings, CABAC : Yes\nFormat settings, ReFrames : 4 frames\nCodec ID : avc1\nCodec ID/Info : Advanced Video Coding\nDuration : 5mn 32s\nBit rate mode : Variable\nBit rate : 931 Kbps\nWidth : 960 pixels\nHeight : 538 pixels\nDisplay aspect ratio : 16:9\nFrame rate mode : Variable\nFrame rate : 29.970 fps\nMinimum frame rate : 29.960 fps\nMaximum frame rate : 29.970 fps\nColor space : YUV\nChroma subsampling : 4:2:0\nBit depth : 8 bits\nScan type : Progressive\nBits/(Pixel*Frame) : 0.060\nStream size : 36.9 MiB (85%)\nWriting library : x264 core 130 r2273 b3065e6\nEncoding settings : cabac=1 // deblock=1:0:0 / analyse=0x3:0x113 / me=hex / subme=7 / psy=1 / psy_rd=1.00:0.00 // me_range=16 / chroma_me=1 / trellis=1 / 8x8dct=1 / cqm=0 / deadzone=21,11 / fast_pskip=1 / chroma_qp_offset=-2 / threads=3 / lookahead_threads=1 / sliced_threads=0 / nr=0 / decimate=1 / interlaced=0 / bluray_compat=0 / constrained_intra=0 / bframes=3 / b_pyramid=2 / b_adapt=1 / b_bias=0 / direct=1 / weightb=1 / open_gop=0 / weightp=2 / keyint=300 / keyint_min=30 / scenecut=40 / intra_refresh=0 / rc_lookahead=40 / rc=crf / mbtree=1 / crf=20.0 / qcomp=0.60 / qpmin=0 / qpmax=69 / qpstep=4 / vbv_maxrate=62500 / vbv_bufsize=78125 / crf_max=0.0 / nal_hrd=none / ip_ratio=1.40 / aq=1:1.00\nColor primaries : BT.709\nTransfer characteristics : BT.709\nMatrix coefficients : BT.709\n\nAudio\nID : 2\nFormat : AAC\nFormat/Info : Advanced Audio Codec\nFormat profile : LC\nCodec ID : 40\nDuration : 5mn 32s\nBit rate mode : Variable\nBit rate : 160 Kbps\nMaximum bit rate : 188 Kbps\nChannel(s) : 2 channels\nChannel positions : Front: L R\nSampling rate : 44.1 KHz\nCompression mode : Lossy\nDelay relative to video : 67ms\nStream size : 6.33 MiB (15%)\nLanguage : English\n\nText\nID : 3\nFormat : Apple text\nCodec ID : text\nDuration : 5mn 32s\nDuration_FirstFrame : -4s 304ms\nBit rate mode : Constant\nBit rate : 1 bps\nStream size : 46.0 Bytes (0%) ","torrent":{"xt":"urn:btih:018ea4a2db4c08bbf5dd8140fdc30ae4bbf7f853","amp;dn":"X-Art+-+2009-11-20+-+Translucence+-+Kat.mp4","amp;tr":["udp%3A%2F%2Ftracker.openbittorrent.com%3A80","udp%3A%2F%2Fopen.demonii.com%3A1337","udp%3A%2F%2Ftracker.coppersurfer.tk%3A6969","udp%3A%2F%2Fexodus.desync.com%3A6969"],"infoHash":"018ea4a2db4c08bbf5dd8140fdc30ae4bbf7f853","infoHashBuffer":{"type":"Buffer","data":[1,142,164,162,219,76,8,187,245,221,129,64,253,195,10,228,187,247,248,83]},"announce":[],"urlList":[]}}